<svg xmlns="http://www.w3.org/2000/svg" width="19.45" height="23.65" viewBox="0 0 19.45 23.65">
  <path id="パス_390" data-name="パス 390" d="M7.175-7.887a3.962,3.962,0,0,0-2.225-.6A4.129,4.129,0,0,0,1.938-7.4,4.362,4.362,0,0,0,.6-4.137,4.088,4.088,0,0,0,1.938-.988,4.177,4.177,0,0,0,4.887.163,4.55,4.55,0,0,0,7.175-.463V-1.975a3.309,3.309,0,0,1-2.25.963,3.01,3.01,0,0,1-3.05-3.125A2.978,2.978,0,0,1,4.912-7.312a3.251,3.251,0,0,1,2.263.925Zm8.575-.45V0h3.725V-1.2h-2.45V-8.337ZM6.625,7.913a2.84,2.84,0,0,0-.638-.838,2.459,2.459,0,0,0-1.675-.562,2.251,2.251,0,0,0-2.437,2.2,2.352,2.352,0,0,0,1.7,2.113l.8.337c.55.225,1.2.575,1.2,1.425a1.34,1.34,0,0,1-1.375,1.4,1.315,1.315,0,0,1-1.087-.5,1.8,1.8,0,0,1-.35-1.062L1.5,12.7a2.7,2.7,0,0,0,.7,1.625,2.439,2.439,0,0,0,1.962.838A2.569,2.569,0,0,0,6.85,12.488c0-.95-.425-1.825-1.963-2.45L4.05,9.7c-.813-.325-.9-.763-.9-1.013a1.033,1.033,0,0,1,1.175-1A1.291,1.291,0,0,1,5.6,8.513ZM20.05,6.663h-4.6V15h4.6V13.8H16.725V11.175H19.95v-1.2H16.725V7.863H20.05Z" transform="translate(-0.6 8.487)" fill="#111"/>
</svg>
