<svg xmlns="http://www.w3.org/2000/svg" width="20" height="24.349" viewBox="0 0 20 24.349">
  <path id="パス_338" data-name="パス 338" d="M2.124-1.186l.864-4.975L5.359-.8l2.4-5.346.84,4.963H9.877L8.321-10.038l-2.889,6.4-2.864-6.4L.84-1.186ZM20.593-9.421H16.05v8.235h4.543V-2.371H17.309V-4.964h3.185V-6.149H17.309V-8.236h3.284ZM2.346,13.805V8.052l5.975,6.259V5.57H7.062v5.7L1.087,5.015v8.79Zm12.4-8.235v5.3A3.048,3.048,0,0,0,15.507,13a3.19,3.19,0,0,0,4.568,0,3.048,3.048,0,0,0,.765-2.136V5.57H19.581v4.963a2.878,2.878,0,0,1-.259,1.42,1.8,1.8,0,0,1-3.062,0A2.878,2.878,0,0,1,16,10.533V5.57Z" transform="translate(-0.84 10.038)" fill="#111"/>
</svg>
